<?xml version="1.0" standalone="no"?>
<!DOCTYPE svg PUBLIC "-//W3C//DTD SVG 20010904//EN"
 "http://www.w3.org/TR/2001/REC-SVG-20010904/DTD/svg10.dtd">
<svg version="1.0" xmlns="http://www.w3.org/2000/svg"
 width="260.000000pt" height="260.000000pt" viewBox="0 0 260.000000 260.000000"
 preserveAspectRatio="xMidYMid meet">
<metadata>
Created by potrace 1.11, written by Peter Selinger 2001-2013
</metadata>
<g transform="translate(0.000000,260.000000) scale(0.100000,-0.100000)"
fill="#000000" stroke="none">
<path d="M1228 2594 c-2 -2 -37 -6 -78 -9 -40 -3 -117 -15 -169 -25 -320 -64
-497 -189 -551 -390 -7 -25 -14 -93 -15 -153 -5 -147 -26 -205 -99 -267 -45
-38 -152 -101 -176 -104 -6 -1 -66 -26 -110 -45 -19 -8 7 -10 110 -6 74 3 146
7 160 9 14 3 43 7 65 10 178 22 332 85 415 168 67 66 88 120 95 243 9 157 31
202 119 247 43 22 124 48 170 54 17 3 60 9 96 14 67 9 354 6 403 -4 15 -3 37
-8 50 -11 220 -44 377 -172 380 -308 2 -92 -20 -144 -82 -200 -69 -63 -150
-98 -502 -221 -533 -186 -791 -318 -942 -481 -61 -66 -60 -53 -61 -605 l-1
-505 800 -3 800 -2 -1 488 c-2 537 -1 527 -63 571 -30 22 -95 48 -138 55 -44
8 -137 38 -166 52 -38 20 -61 72 -53 118 10 52 50 77 222 142 192 72 173 64
287 118 284 133 419 299 404 493 -16 196 -206 372 -504 467 -97 31 -184 53
-243 61 -25 3 -74 11 -110 17 -60 10 -504 21 -512 12z"/>
</g>
</svg>
